<svg width="260" height="46" viewBox="0 0 260 46" fill="none" xmlns="http://www.w3.org/2000/svg">
<g clip-path="url(#clip0_103_2)">
<rect width="46" height="46" rx="8" fill="#7828C8"/>
<path d="M13.2882 30.62V27.5L27.0882 27.524C27.7922 27.524 28.3282 27.364 28.6962 27.044C29.0802 26.708 29.2722 26.172 29.2722 25.436C29.2722 24.7 29.0802 24.172 28.6962 23.852C28.3282 23.516 27.7922 23.348 27.0882 23.348H18.4962C16.7202 23.348 15.3362 22.924 14.3442 22.076C13.3682 21.212 12.8802 19.948 12.8802 18.284C12.8802 16.62 13.3682 15.364 14.3442 14.516C15.3362 13.652 16.7202 13.22 18.4962 13.22H31.9842V16.34L18.9042 16.316C18.2162 16.316 17.6802 16.476 17.2962 16.796C16.9122 17.1 16.7202 17.596 16.7202 18.284C16.7202 18.972 16.9122 19.476 17.2962 19.796C17.6802 20.1 18.2162 20.252 18.9042 20.252H27.4962C29.2722 20.252 30.6482 20.692 31.6242 21.572C32.6162 22.436 33.1122 23.724 33.1122 25.436C33.1122 27.132 32.6162 28.42 31.6242 29.3C30.6482 30.18 29.2722 30.62 27.4962 30.62H13.2882Z" fill="white"/>
<path d="M64.768 35.48C63.0827 35.48 61.5627 35.1867 60.208 34.6C58.864 34.0133 57.7547 33.176 56.88 32.088C56.016 30.9893 55.4667 29.688 55.232 28.184L59.232 27.576C59.5733 28.9413 60.272 29.9973 61.328 30.744C62.3947 31.4907 63.6213 31.864 65.008 31.864C65.8293 31.864 66.6027 31.736 67.328 31.48C68.0533 31.224 68.64 30.8507 69.088 30.36C69.5467 29.8693 69.776 29.2667 69.776 28.552C69.776 28.232 69.7227 27.9387 69.616 27.672C69.5093 27.3947 69.3493 27.1493 69.136 26.936C68.9333 26.7227 68.6667 26.5307 68.336 26.36C68.016 26.1787 67.6427 26.024 67.216 25.896L61.264 24.136C60.752 23.9867 60.1973 23.7893 59.6 23.544C59.0133 23.288 58.4533 22.9413 57.92 22.504C57.3973 22.056 56.9653 21.4907 56.624 20.808C56.2933 20.1147 56.128 19.2613 56.128 18.248C56.128 16.7653 56.5013 15.5227 57.248 14.52C58.0053 13.5067 59.0187 12.7493 60.288 12.248C61.568 11.7467 62.9867 11.5013 64.544 11.512C66.1227 11.5227 67.5307 11.7947 68.768 12.328C70.0053 12.8507 71.04 13.6133 71.872 14.616C72.704 15.6187 73.2907 16.8293 73.632 18.248L69.488 18.968C69.3173 18.1573 68.9867 17.4693 68.496 16.904C68.016 16.328 67.424 15.8907 66.72 15.592C66.0267 15.2933 65.2853 15.1333 64.496 15.112C63.728 15.1013 63.0133 15.2187 62.352 15.464C61.7013 15.6987 61.1733 16.04 60.768 16.488C60.3733 16.936 60.176 17.4587 60.176 18.056C60.176 18.6213 60.3467 19.0853 60.688 19.448C61.0293 19.8 61.4507 20.0827 61.952 20.296C62.464 20.4987 62.9813 20.6693 63.504 20.808L67.632 21.96C68.1973 22.1093 68.832 22.312 69.536 22.568C70.24 22.824 70.9173 23.1813 71.568 23.64C72.2187 24.0987 72.752 24.7013 73.168 25.448C73.5947 26.1947 73.808 27.144 73.808 28.296C73.808 29.4907 73.5573 30.5413 73.056 31.448C72.5653 32.344 71.8987 33.0907 71.056 33.688C70.2133 34.2853 69.248 34.7333 68.16 35.032C67.0827 35.3307 65.952 35.48 64.768 35.48ZM77.5913 35V11.96H81.4473V35H77.5913ZM91.776 35V15.576H84.32V11.96H103.088V15.576H95.632V35H91.776ZM115.39 35.48C113.086 35.48 111.113 34.9787 109.47 33.976C107.828 32.9627 106.564 31.5547 105.678 29.752C104.804 27.9493 104.366 25.8587 104.366 23.48C104.366 21.1013 104.804 19.0107 105.678 17.208C106.564 15.4053 107.828 14.0027 109.47 13C111.113 11.9867 113.086 11.48 115.39 11.48C118.046 11.48 120.26 12.1467 122.03 13.48C123.801 14.8027 125.044 16.5893 125.758 18.84L121.87 19.912C121.422 18.408 120.66 17.2347 119.582 16.392C118.505 15.5387 117.108 15.112 115.39 15.112C113.844 15.112 112.553 15.4587 111.518 16.152C110.494 16.8453 109.721 17.8213 109.198 19.08C108.686 20.328 108.425 21.7947 108.414 23.48C108.414 25.1653 108.67 26.6373 109.182 27.896C109.705 29.144 110.484 30.1147 111.518 30.808C112.553 31.5013 113.844 31.848 115.39 31.848C117.108 31.848 118.505 31.4213 119.582 30.568C120.66 29.7147 121.422 28.5413 121.87 27.048L125.758 28.12C125.044 30.3707 123.801 32.1627 122.03 33.496C120.26 34.8187 118.046 35.48 115.39 35.48ZM139.015 35.48C136.711 35.48 134.738 34.9787 133.095 33.976C131.453 32.9627 130.189 31.5547 129.303 29.752C128.429 27.9493 127.991 25.8587 127.991 23.48C127.991 21.1013 128.429 19.0107 129.303 17.208C130.189 15.4053 131.453 14.0027 133.095 13C134.738 11.9867 136.711 11.48 139.015 11.48C141.319 11.48 143.293 11.9867 144.935 13C146.589 14.0027 147.853 15.4053 148.727 17.208C149.613 19.0107 150.055 21.1013 150.055 23.48C150.055 25.8587 149.613 27.9493 148.727 29.752C147.853 31.5547 146.589 32.9627 144.935 33.976C143.293 34.9787 141.319 35.48 139.015 35.48ZM139.015 31.848C140.562 31.8587 141.847 31.5173 142.871 30.824C143.906 30.1307 144.679 29.1547 145.191 27.896C145.714 26.6373 145.975 25.1653 145.975 23.48C145.975 21.7947 145.714 20.3333 145.191 19.096C144.679 17.848 143.906 16.8773 142.871 16.184C141.847 15.4907 140.562 15.1333 139.015 15.112C137.469 15.1013 136.183 15.4427 135.159 16.136C134.135 16.8293 133.362 17.8053 132.839 19.064C132.327 20.3227 132.071 21.7947 132.071 23.48C132.071 25.1653 132.327 26.632 132.839 27.88C133.351 29.1173 134.119 30.0827 135.143 30.776C136.178 31.4693 137.469 31.8267 139.015 31.848ZM153.56 35V11.96H157.416V31.384H167.592V35H153.56ZM178.831 35.48C177.145 35.48 175.625 35.1867 174.271 34.6C172.927 34.0133 171.817 33.176 170.943 32.088C170.079 30.9893 169.529 29.688 169.295 28.184L173.295 27.576C173.636 28.9413 174.335 29.9973 175.391 30.744C176.457 31.4907 177.684 31.864 179.071 31.864C179.892 31.864 180.665 31.736 181.391 31.48C182.116 31.224 182.703 30.8507 183.151 30.36C183.609 29.8693 183.839 29.2667 183.839 28.552C183.839 28.232 183.785 27.9387 183.679 27.672C183.572 27.3947 183.412 27.1493 183.199 26.936C182.996 26.7227 182.729 26.5307 182.399 26.36C182.079 26.1787 181.705 26.024 181.279 25.896L175.327 24.136C174.815 23.9867 174.26 23.7893 173.663 23.544C173.076 23.288 172.516 22.9413 171.983 22.504C171.46 22.056 171.028 21.4907 170.687 20.808C170.356 20.1147 170.191 19.2613 170.191 18.248C170.191 16.7653 170.564 15.5227 171.311 14.52C172.068 13.5067 173.081 12.7493 174.351 12.248C175.631 11.7467 177.049 11.5013 178.607 11.512C180.185 11.5227 181.593 11.7947 182.831 12.328C184.068 12.8507 185.103 13.6133 185.935 14.616C186.767 15.6187 187.353 16.8293 187.695 18.248L183.551 18.968C183.38 18.1573 183.049 17.4693 182.559 16.904C182.079 16.328 181.487 15.8907 180.783 15.592C180.089 15.2933 179.348 15.1333 178.559 15.112C177.791 15.1013 177.076 15.2187 176.415 15.464C175.764 15.6987 175.236 16.04 174.831 16.488C174.436 16.936 174.239 17.4587 174.239 18.056C174.239 18.6213 174.409 19.0853 174.751 19.448C175.092 19.8 175.513 20.0827 176.015 20.296C176.527 20.4987 177.044 20.6693 177.567 20.808L181.695 21.96C182.26 22.1093 182.895 22.312 183.599 22.568C184.303 22.824 184.98 23.1813 185.631 23.64C186.281 24.0987 186.815 24.7013 187.231 25.448C187.657 26.1947 187.871 27.144 187.871 28.296C187.871 29.4907 187.62 30.5413 187.119 31.448C186.628 32.344 185.961 33.0907 185.119 33.688C184.276 34.2853 183.311 34.7333 182.223 35.032C181.145 35.3307 180.015 35.48 178.831 35.48ZM191.014 24.984V21.96H200.614V24.984H191.014ZM205.091 35V11.96H208.947V35H205.091ZM213.74 35V11.96H217.212L225.18 28.28L233.148 11.96H236.62V35H233.02V20.232L225.948 35H224.412L217.356 20.232V35H213.74ZM249.643 35.48C247.958 35.48 246.438 35.1867 245.083 34.6C243.739 34.0133 242.63 33.176 241.755 32.088C240.891 30.9893 240.342 29.688 240.107 28.184L244.107 27.576C244.448 28.9413 245.147 29.9973 246.203 30.744C247.27 31.4907 248.496 31.864 249.883 31.864C250.704 31.864 251.478 31.736 252.203 31.48C252.928 31.224 253.515 30.8507 253.963 30.36C254.422 29.8693 254.651 29.2667 254.651 28.552C254.651 28.232 254.598 27.9387 254.491 27.672C254.384 27.3947 254.224 27.1493 254.011 26.936C253.808 26.7227 253.542 26.5307 253.211 26.36C252.891 26.1787 252.518 26.024 252.091 25.896L246.139 24.136C245.627 23.9867 245.072 23.7893 244.475 23.544C243.888 23.288 243.328 22.9413 242.795 22.504C242.272 22.056 241.84 21.4907 241.499 20.808C241.168 20.1147 241.003 19.2613 241.003 18.248C241.003 16.7653 241.376 15.5227 242.123 14.52C242.88 13.5067 243.894 12.7493 245.163 12.248C246.443 11.7467 247.862 11.5013 249.419 11.512C250.998 11.5227 252.406 11.7947 253.643 12.328C254.88 12.8507 255.915 13.6133 256.747 14.616C257.579 15.6187 258.166 16.8293 258.507 18.248L254.363 18.968C254.192 18.1573 253.862 17.4693 253.371 16.904C252.891 16.328 252.299 15.8907 251.595 15.592C250.902 15.2933 250.16 15.1333 249.371 15.112C248.603 15.1013 247.888 15.2187 247.227 15.464C246.576 15.6987 246.048 16.04 245.643 16.488C245.248 16.936 245.051 17.4587 245.051 18.056C245.051 18.6213 245.222 19.0853 245.563 19.448C245.904 19.8 246.326 20.0827 246.827 20.296C247.339 20.4987 247.856 20.6693 248.379 20.808L252.507 21.96C253.072 22.1093 253.707 22.312 254.411 22.568C255.115 22.824 255.792 23.1813 256.443 23.64C257.094 24.0987 257.627 24.7013 258.043 25.448C258.47 26.1947 258.683 27.144 258.683 28.296C258.683 29.4907 258.432 30.5413 257.931 31.448C257.44 32.344 256.774 33.0907 255.931 33.688C255.088 34.2853 254.123 34.7333 253.035 35.032C251.958 35.3307 250.827 35.48 249.643 35.48Z" fill="black"/>
</g>
<defs>
<clipPath id="clip0_103_2">
<rect width="260" height="46" fill="white"/>
</clipPath>
</defs>
</svg>
