<svg width="194" height="46" viewBox="0 0 194 46" fill="none" xmlns="http://www.w3.org/2000/svg">
<g clip-path="url(#clip0_101_12)">
<rect width="46" height="46" rx="8" fill="#7828C8"/>
<path d="M13.2882 30.62V27.5L27.0882 27.524C27.7922 27.524 28.3282 27.364 28.6962 27.044C29.0802 26.708 29.2722 26.172 29.2722 25.436C29.2722 24.7 29.0802 24.172 28.6962 23.852C28.3282 23.516 27.7922 23.348 27.0882 23.348H18.4962C16.7202 23.348 15.3362 22.924 14.3442 22.076C13.3682 21.212 12.8802 19.948 12.8802 18.284C12.8802 16.62 13.3682 15.364 14.3442 14.516C15.3362 13.652 16.7202 13.22 18.4962 13.22H31.9842V16.34L18.9042 16.316C18.2162 16.316 17.6802 16.476 17.2962 16.796C16.9122 17.1 16.7202 17.596 16.7202 18.284C16.7202 18.972 16.9122 19.476 17.2962 19.796C17.6802 20.1 18.2162 20.252 18.9042 20.252H27.4962C29.2722 20.252 30.6482 20.692 31.6242 21.572C32.6162 22.436 33.1122 23.724 33.1122 25.436C33.1122 27.132 32.6162 28.42 31.6242 29.3C30.6482 30.18 29.2722 30.62 27.4962 30.62H13.2882Z" fill="white"/>
<path d="M60.768 35.48C59.0827 35.48 57.5627 35.1867 56.208 34.6C54.864 34.0133 53.7547 33.176 52.88 32.088C52.016 30.9893 51.4667 29.688 51.232 28.184L55.232 27.576C55.5733 28.9413 56.272 29.9973 57.328 30.744C58.3947 31.4907 59.6213 31.864 61.008 31.864C61.8293 31.864 62.6027 31.736 63.328 31.48C64.0533 31.224 64.64 30.8507 65.088 30.36C65.5467 29.8693 65.776 29.2667 65.776 28.552C65.776 28.232 65.7227 27.9387 65.616 27.672C65.5093 27.3947 65.3493 27.1493 65.136 26.936C64.9333 26.7227 64.6667 26.5307 64.336 26.36C64.016 26.1787 63.6427 26.024 63.216 25.896L57.264 24.136C56.752 23.9867 56.1973 23.7893 55.6 23.544C55.0133 23.288 54.4533 22.9413 53.92 22.504C53.3973 22.056 52.9653 21.4907 52.624 20.808C52.2933 20.1147 52.128 19.2613 52.128 18.248C52.128 16.7653 52.5013 15.5227 53.248 14.52C54.0053 13.5067 55.0187 12.7493 56.288 12.248C57.568 11.7467 58.9867 11.5013 60.544 11.512C62.1227 11.5227 63.5307 11.7947 64.768 12.328C66.0053 12.8507 67.04 13.6133 67.872 14.616C68.704 15.6187 69.2907 16.8293 69.632 18.248L65.488 18.968C65.3173 18.1573 64.9867 17.4693 64.496 16.904C64.016 16.328 63.424 15.8907 62.72 15.592C62.0267 15.2933 61.2853 15.1333 60.496 15.112C59.728 15.1013 59.0133 15.2187 58.352 15.464C57.7013 15.6987 57.1733 16.04 56.768 16.488C56.3733 16.936 56.176 17.4587 56.176 18.056C56.176 18.6213 56.3467 19.0853 56.688 19.448C57.0293 19.8 57.4507 20.0827 57.952 20.296C58.464 20.4987 58.9813 20.6693 59.504 20.808L63.632 21.96C64.1973 22.1093 64.832 22.312 65.536 22.568C66.24 22.824 66.9173 23.1813 67.568 23.64C68.2187 24.0987 68.752 24.7013 69.168 25.448C69.5947 26.1947 69.808 27.144 69.808 28.296C69.808 29.4907 69.5573 30.5413 69.056 31.448C68.5653 32.344 67.8987 33.0907 67.056 33.688C66.2133 34.2853 65.248 34.7333 64.16 35.032C63.0827 35.3307 61.952 35.48 60.768 35.48ZM73.5913 35V11.96H77.4473V35H73.5913ZM87.776 35V15.576H80.32V11.96H99.088V15.576H91.632V35H87.776ZM111.39 35.48C109.086 35.48 107.113 34.9787 105.47 33.976C103.828 32.9627 102.564 31.5547 101.678 29.752C100.804 27.9493 100.366 25.8587 100.366 23.48C100.366 21.1013 100.804 19.0107 101.678 17.208C102.564 15.4053 103.828 14.0027 105.47 13C107.113 11.9867 109.086 11.48 111.39 11.48C114.046 11.48 116.26 12.1467 118.03 13.48C119.801 14.8027 121.044 16.5893 121.758 18.84L117.87 19.912C117.422 18.408 116.66 17.2347 115.582 16.392C114.505 15.5387 113.108 15.112 111.39 15.112C109.844 15.112 108.553 15.4587 107.518 16.152C106.494 16.8453 105.721 17.8213 105.198 19.08C104.686 20.328 104.425 21.7947 104.414 23.48C104.414 25.1653 104.67 26.6373 105.182 27.896C105.705 29.144 106.484 30.1147 107.518 30.808C108.553 31.5013 109.844 31.848 111.39 31.848C113.108 31.848 114.505 31.4213 115.582 30.568C116.66 29.7147 117.422 28.5413 117.87 27.048L121.758 28.12C121.044 30.3707 119.801 32.1627 118.03 33.496C116.26 34.8187 114.046 35.48 111.39 35.48ZM135.015 35.48C132.711 35.48 130.738 34.9787 129.095 33.976C127.453 32.9627 126.189 31.5547 125.303 29.752C124.429 27.9493 123.991 25.8587 123.991 23.48C123.991 21.1013 124.429 19.0107 125.303 17.208C126.189 15.4053 127.453 14.0027 129.095 13C130.738 11.9867 132.711 11.48 135.015 11.48C137.319 11.48 139.293 11.9867 140.935 13C142.589 14.0027 143.853 15.4053 144.727 17.208C145.613 19.0107 146.055 21.1013 146.055 23.48C146.055 25.8587 145.613 27.9493 144.727 29.752C143.853 31.5547 142.589 32.9627 140.935 33.976C139.293 34.9787 137.319 35.48 135.015 35.48ZM135.015 31.848C136.562 31.8587 137.847 31.5173 138.871 30.824C139.906 30.1307 140.679 29.1547 141.191 27.896C141.714 26.6373 141.975 25.1653 141.975 23.48C141.975 21.7947 141.714 20.3333 141.191 19.096C140.679 17.848 139.906 16.8773 138.871 16.184C137.847 15.4907 136.562 15.1333 135.015 15.112C133.469 15.1013 132.183 15.4427 131.159 16.136C130.135 16.8293 129.362 17.8053 128.839 19.064C128.327 20.3227 128.071 21.7947 128.071 23.48C128.071 25.1653 128.327 26.632 128.839 27.88C129.351 29.1173 130.119 30.0827 131.143 30.776C132.178 31.4693 133.469 31.8267 135.015 31.848ZM149.56 35V11.96H153.416V31.384H163.592V35H149.56ZM174.831 35.48C173.145 35.48 171.625 35.1867 170.271 34.6C168.927 34.0133 167.817 33.176 166.943 32.088C166.079 30.9893 165.529 29.688 165.295 28.184L169.295 27.576C169.636 28.9413 170.335 29.9973 171.391 30.744C172.457 31.4907 173.684 31.864 175.071 31.864C175.892 31.864 176.665 31.736 177.391 31.48C178.116 31.224 178.703 30.8507 179.151 30.36C179.609 29.8693 179.839 29.2667 179.839 28.552C179.839 28.232 179.785 27.9387 179.679 27.672C179.572 27.3947 179.412 27.1493 179.199 26.936C178.996 26.7227 178.729 26.5307 178.399 26.36C178.079 26.1787 177.705 26.024 177.279 25.896L171.327 24.136C170.815 23.9867 170.26 23.7893 169.663 23.544C169.076 23.288 168.516 22.9413 167.983 22.504C167.46 22.056 167.028 21.4907 166.687 20.808C166.356 20.1147 166.191 19.2613 166.191 18.248C166.191 16.7653 166.564 15.5227 167.311 14.52C168.068 13.5067 169.081 12.7493 170.351 12.248C171.631 11.7467 173.049 11.5013 174.607 11.512C176.185 11.5227 177.593 11.7947 178.831 12.328C180.068 12.8507 181.103 13.6133 181.935 14.616C182.767 15.6187 183.353 16.8293 183.695 18.248L179.551 18.968C179.38 18.1573 179.049 17.4693 178.559 16.904C178.079 16.328 177.487 15.8907 176.783 15.592C176.089 15.2933 175.348 15.1333 174.559 15.112C173.791 15.1013 173.076 15.2187 172.415 15.464C171.764 15.6987 171.236 16.04 170.831 16.488C170.436 16.936 170.239 17.4587 170.239 18.056C170.239 18.6213 170.409 19.0853 170.751 19.448C171.092 19.8 171.513 20.0827 172.015 20.296C172.527 20.4987 173.044 20.6693 173.567 20.808L177.695 21.96C178.26 22.1093 178.895 22.312 179.599 22.568C180.303 22.824 180.98 23.1813 181.631 23.64C182.281 24.0987 182.815 24.7013 183.231 25.448C183.657 26.1947 183.871 27.144 183.871 28.296C183.871 29.4907 183.62 30.5413 183.119 31.448C182.628 32.344 181.961 33.0907 181.119 33.688C180.276 34.2853 179.311 34.7333 178.223 35.032C177.145 35.3307 176.015 35.48 174.831 35.48ZM187.161 35V31.048H191.113V35H187.161Z" fill="black"/>
</g>
<defs>
<clipPath id="clip0_101_12">
<rect width="194" height="46" fill="white"/>
</clipPath>
</defs>
</svg>
